<svg width="40" height="40" viewBox="0 0 40 40" fill="none" xmlns="http://www.w3.org/2000/svg">
<path d="M20.0002 28.3332C20.4724 28.3332 20.8682 28.1734 21.1877 27.854C21.5071 27.5346 21.6668 27.1387 21.6668 26.6665C21.6668 26.1943 21.5071 25.7984 21.1877 25.479C20.8682 25.1596 20.4724 24.9998 20.0002 24.9998C19.5279 24.9998 19.1321 25.1596 18.8127 25.479C18.4932 25.7984 18.3335 26.1943 18.3335 26.6665C18.3335 27.1387 18.4932 27.5346 18.8127 27.854C19.1321 28.1734 19.5279 28.3332 20.0002 28.3332ZM20.0002 21.6665C20.4724 21.6665 20.8682 21.5068 21.1877 21.1873C21.5071 20.8679 21.6668 20.4721 21.6668 19.9998C21.6668 19.5276 21.5071 19.1318 21.1877 18.8123C20.8682 18.4929 20.4724 18.3332 20.0002 18.3332C19.5279 18.3332 19.1321 18.4929 18.8127 18.8123C18.4932 19.1318 18.3335 19.5276 18.3335 19.9998C18.3335 20.4721 18.4932 20.8679 18.8127 21.1873C19.1321 21.5068 19.5279 21.6665 20.0002 21.6665ZM20.0002 14.9998C20.4724 14.9998 20.8682 14.8401 21.1877 14.5207C21.5071 14.2012 21.6668 13.8054 21.6668 13.3332C21.6668 12.8609 21.5071 12.4651 21.1877 12.1457C20.8682 11.8262 20.4724 11.6665 20.0002 11.6665C19.5279 11.6665 19.1321 11.8262 18.8127 12.1457C18.4932 12.4651 18.3335 12.8609 18.3335 13.3332C18.3335 13.8054 18.4932 14.2012 18.8127 14.5207C19.1321 14.8401 19.5279 14.9998 20.0002 14.9998ZM33.3335 33.3332H6.66683C5.75016 33.3332 4.96544 33.0068 4.31266 32.354C3.65988 31.7012 3.3335 30.9165 3.3335 29.9998V23.3332C4.25016 23.3332 5.03488 23.0068 5.68766 22.354C6.34044 21.7012 6.66683 20.9165 6.66683 19.9998C6.66683 19.0832 6.34044 18.2984 5.68766 17.6457C5.03488 16.9929 4.25016 16.6665 3.3335 16.6665V9.99984C3.3335 9.08317 3.65988 8.29845 4.31266 7.64567C4.96544 6.99289 5.75016 6.6665 6.66683 6.6665H33.3335C34.2502 6.6665 35.0349 6.99289 35.6877 7.64567C36.3404 8.29845 36.6668 9.08317 36.6668 9.99984V16.6665C35.7502 16.6665 34.9654 16.9929 34.3127 17.6457C33.6599 18.2984 33.3335 19.0832 33.3335 19.9998C33.3335 20.9165 33.6599 21.7012 34.3127 22.354C34.9654 23.0068 35.7502 23.3332 36.6668 23.3332V29.9998C36.6668 30.9165 36.3404 31.7012 35.6877 32.354C35.0349 33.0068 34.2502 33.3332 33.3335 33.3332ZM33.3335 29.9998V25.7498C32.3057 25.1387 31.4932 24.3262 30.896 23.3123C30.2988 22.2984 30.0002 21.1943 30.0002 19.9998C30.0002 18.8054 30.2988 17.7012 30.896 16.6873C31.4932 15.6734 32.3057 14.8609 33.3335 14.2498V9.99984H6.66683V14.2498C7.69461 14.8609 8.50711 15.6734 9.10433 16.6873C9.70155 17.7012 10.0002 18.8054 10.0002 19.9998C10.0002 21.1943 9.70155 22.2984 9.10433 23.3123C8.50711 24.3262 7.69461 25.1387 6.66683 25.7498V29.9998H33.3335Z" fill="black"/>
</svg>
