<svg width="40" height="40" viewBox="0 0 40 40" fill="none" xmlns="http://www.w3.org/2000/svg">
<path d="M20.0002 36.6668C17.6946 36.6668 15.5279 36.2293 13.5002 35.3543C11.4724 34.4793 9.7085 33.2918 8.2085 31.7918C6.7085 30.2918 5.521 28.5279 4.646 26.5002C3.771 24.4724 3.3335 22.3057 3.3335 20.0002C3.3335 17.6946 3.771 15.5279 4.646 13.5002C5.521 11.4724 6.7085 9.7085 8.2085 8.2085C9.7085 6.7085 11.4724 5.521 13.5002 4.646C15.5279 3.771 17.6946 3.3335 20.0002 3.3335C24.0557 3.3335 27.6043 4.60433 30.646 7.146C33.6877 9.68766 35.5835 12.8752 36.3335 16.7085H32.9168C32.389 14.6807 31.4377 12.8682 30.0627 11.271C28.6877 9.67377 27.0002 8.47239 25.0002 7.66683V8.3335C25.0002 9.25016 24.6738 10.0349 24.021 10.6877C23.3682 11.3404 22.5835 11.6668 21.6668 11.6668H18.3335V15.0002C18.3335 15.4724 18.1738 15.8682 17.8543 16.1877C17.5349 16.5071 17.1391 16.6668 16.6668 16.6668H13.3335V20.0002H16.6668V25.0002H15.0002L7.00016 17.0002C6.91683 17.5002 6.84044 18.0002 6.771 18.5002C6.70155 19.0002 6.66683 19.5002 6.66683 20.0002C6.66683 23.6391 7.94461 26.7641 10.5002 29.3752C13.0557 31.9863 16.2224 33.3057 20.0002 33.3335V36.6668ZM35.1668 35.8335L29.8335 30.5002C29.2502 30.8335 28.6252 31.1113 27.9585 31.3335C27.2918 31.5557 26.5835 31.6668 25.8335 31.6668C23.7502 31.6668 21.9793 30.9377 20.521 29.4793C19.0627 28.021 18.3335 26.2502 18.3335 24.1668C18.3335 22.0835 19.0627 20.3127 20.521 18.8543C21.9793 17.396 23.7502 16.6668 25.8335 16.6668C27.9168 16.6668 29.6877 17.396 31.146 18.8543C32.6043 20.3127 33.3335 22.0835 33.3335 24.1668C33.3335 24.9168 33.2224 25.6252 33.0002 26.2918C32.7779 26.9585 32.5002 27.5835 32.1668 28.1668L37.5002 33.5002L35.1668 35.8335ZM25.8335 28.3335C27.0002 28.3335 27.9863 27.9307 28.7918 27.1252C29.5974 26.3196 30.0002 25.3335 30.0002 24.1668C30.0002 23.0002 29.5974 22.0141 28.7918 21.2085C27.9863 20.4029 27.0002 20.0002 25.8335 20.0002C24.6668 20.0002 23.6807 20.4029 22.8752 21.2085C22.0696 22.0141 21.6668 23.0002 21.6668 24.1668C21.6668 25.3335 22.0696 26.3196 22.8752 27.1252C23.6807 27.9307 24.6668 28.3335 25.8335 28.3335Z" fill="black"/>
</svg>
