<svg width="20" height="20" viewBox="0 0 20 20" fill="none" xmlns="http://www.w3.org/2000/svg">
<path d="M18.7832 5.34992C18.6843 4.95443 18.4826 4.59206 18.1988 4.29942C17.9149 4.00679 17.5589 3.79424 17.1666 3.68325C15.7332 3.33325 9.99991 3.33325 9.99991 3.33325C9.99991 3.33325 4.26657 3.33325 2.83324 3.71659C2.44095 3.82757 2.08489 4.04012 1.80103 4.33276C1.51717 4.6254 1.31556 4.98776 1.21657 5.38325C0.954252 6.83788 0.825937 8.31351 0.83324 9.79159C0.823889 11.2808 0.952213 12.7677 1.21657 14.2333C1.32571 14.6165 1.53183 14.965 1.81503 15.2453C2.09822 15.5256 2.44892 15.7281 2.83324 15.8333C4.26657 16.2166 9.99991 16.2166 9.99991 16.2166C9.99991 16.2166 15.7332 16.2166 17.1666 15.8333C17.5589 15.7223 17.9149 15.5097 18.1988 15.2171C18.4826 14.9244 18.6843 14.5621 18.7832 14.1666C19.0435 12.7229 19.1718 11.2585 19.1666 9.79159C19.1759 8.30238 19.0476 6.8155 18.7832 5.34992Z" stroke="black" stroke-width="1.5" stroke-linecap="round" stroke-linejoin="round"/>
<path d="M8.125 12.5167L12.9167 9.79165L8.125 7.06665V12.5167Z" stroke="black" stroke-width="1.5" stroke-linecap="round" stroke-linejoin="round"/>
</svg>
